<?xml version="1.0" encoding="utf-8"?>
<!-- Svg Vector Icons : http://www.onlinewebfonts.com/icon -->
<!DOCTYPE svg PUBLIC "-//W3C//DTD SVG 1.1//EN" "http://www.w3.org/Graphics/SVG/1.1/DTD/svg11.dtd">
<svg version="1.1" xmlns="http://www.w3.org/2000/svg" xmlns:xlink="http://www.w3.org/1999/xlink" x="0px" y="0px" viewBox="0 0 256 256" enable-background="new 0 0 256 256" xml:space="preserve">
<metadata> Svg Vector Icons : http://www.onlinewebfonts.com/icon </metadata>
<g><g><g><g><path fill="#000000" d="M137.9,94.3c0,9.5,7.7,17.2,17.2,17.2c9.5,0,17.2-7.7,17.2-17.2s-7.7-17.2-17.2-17.2C145.6,77.1,137.9,84.8,137.9,94.3z"/><path fill="#000000" d="M191.5,163.7c-4-27.3-10-38.9-24.9-48c-0.3-0.2-0.6-0.3-0.9-0.4c-1.9-1.3-4.1-2.2-6.3-2.8l-4.3,4.3l-4.2-4.4c0,0,0,0,0,0c-3.2,0.8-6.3,2.4-8.7,4.6c-13.3,8.9-18.9,20.7-22.7,46.6c-0.5,3.6,2,7,5.6,7.6c0.3,0,0.7,0.1,1,0.1c3.3,0,6.1-2.4,6.6-5.7c1.4-9.3,2.9-16.1,4.8-21.2v21c0,1.8,0.4,3.5,1,5c0,0.3-0.1,0.7-0.1,1.1v64c0,4.4,3.5,7.9,7.9,7.9c4.4,0,7.9-3.5,7.9-7.9v-54.9c0.3,0,0.6,0,0.9,0c0.1,0,0.1,0,0.2,0v54.9c0,4.4,3.5,7.9,7.9,7.9l0,0c4.4,0,7.9-3.5,7.9-7.9V172c1-1.9,1.6-4.1,1.6-6.5v-23.1c2.1,5.3,3.9,12.7,5.5,23.2c0.5,3.3,3.3,5.7,6.6,5.7c0.3,0,0.6,0,1-0.1C189.5,170.8,192,167.4,191.5,163.7z"/><path fill="#000000" d="M115.3,162.6c-0.2,1.2-0.1,2.4,0.1,3.5v-3.9C115.3,162.4,115.3,162.5,115.3,162.6z"/><path fill="#000000" d="M90.7 34.4a24.4 24.4 0 1 0 48.8 0a24.4 24.4 0 1 0 -48.8 0z"/><path fill="#000000" d="M167.9,111.1c0.3,0.1,0.6,0.3,0.9,0.5c3.9,2.4,7.2,4.9,10,7.8c0.3-0.1,0.6-0.3,0.8-0.4c4.4-2.8,5.7-8.7,2.9-13.1c-2-3.1-4.1-5.9-6.2-8.5C175.4,102.9,172.4,107.8,167.9,111.1z"/><path fill="#000000" d="M134.1,171.8c-2.4,2.5-5.9,3.8-9.5,3.3c-4.8-0.7-8.4-4.4-9.2-8.9v68.6c0,6.2,5,11.2,11.2,11.2c3.8,0,7.2-1.9,9.2-4.8c-1.1-1.8-1.7-3.9-1.7-6.1V171.8z"/><path fill="#000000" d="M139.6,113.3c0.2-0.1,0.3-0.3,0.5-0.4v-3.7c-4-3.9-6.5-9.3-6.5-15.3c0-9.1,5.7-16.9,13.6-20c-2-1.1-3.9-2.2-5.9-3.3c-3.5-2-6.8-3.8-10.1-5.8c-0.4-0.2-0.8-0.4-1.3-0.6c-2.7-1.8-5.8-3.2-8.9-3.9l-6.1,6.1l-5.9-6.2c0,0,0,0-0.1,0c-4.5,1.1-8.9,3.4-12.3,6.6c-18.8,12.7-26.9,29.5-32.2,66.2c-0.8,5.2,2.8,10,8,10.8c0.5,0.1,0.9,0.1,1.4,0.1c4.6,0,8.7-3.4,9.4-8.1c1.9-13.2,4.2-22.9,6.8-30.1v29.9c0,2.6,0.5,4.9,1.4,7.1c-0.1,0.5-0.1,1-0.1,1.5v90.8c0,6.2,5,11.2,11.2,11.2c6.2,0,11.2-5,11.2-11.2v-77.9c0.4,0,0.9,0,1.3,0c0.1,0,0.2,0,0.3,0v5.3C119.3,135.3,125.5,122.8,139.6,113.3z"/></g></g><g></g><g></g><g></g><g></g><g></g><g></g><g></g><g></g><g></g><g></g><g></g><g></g><g></g><g></g><g></g></g></g>
</svg>